<?xml version="1.0" encoding="UTF-8" standalone="no"?>
<svg
   width="80mm"
   height="80mm"
   viewBox="-26 -21 80 80"
   version="1.1"
   id="svg1542"
   inkscape:version="1.2.1 (9c6d41e410, 2022-07-14)"
   sodipodi:docname="B712 mit Bitmap.svg"
   xmlns:inkscape="http://www.inkscape.org/namespaces/inkscape"
   xmlns:sodipodi="http://sodipodi.sourceforge.net/DTD/sodipodi-0.dtd"
   xmlns="http://www.w3.org/2000/svg"
   xmlns:svg="http://www.w3.org/2000/svg"
   xmlns:rdf="http://www.w3.org/1999/02/22-rdf-syntax-ns#"
   xmlns:cc="http://creativecommons.org/ns#"
   xmlns:dc="http://purl.org/dc/elements/1.1/">
  <title
     id="title796">Boeing 717-200</title>
  <defs
     id="defs1536" />
  <sodipodi:namedview
     id="base"
     pagecolor="#ffffff"
     bordercolor="#666666"
     borderopacity="1.0"
     inkscape:pageopacity="0.0"
     inkscape:pageshadow="2"
     inkscape:zoom="3.959798"
     inkscape:cx="147.10346"
     inkscape:cy="160.48798"
     inkscape:document-units="mm"
     inkscape:current-layer="layer2"
     inkscape:document-rotation="0"
     showgrid="false"
     inkscape:window-width="1920"
     inkscape:window-height="1121"
     inkscape:window-x="2391"
     inkscape:window-y="140"
     inkscape:window-maximized="1"
     inkscape:snap-global="false"
     inkscape:showpageshadow="2"
     inkscape:pagecheckerboard="0"
     inkscape:deskcolor="#d1d1d1" />
  <metadata
     id="metadata1539">
    <rdf:RDF>
      <cc:Work
         rdf:about="">
        <dc:format>image/svg+xml</dc:format>
        <dc:type
           rdf:resource="http://purl.org/dc/dcmitype/StillImage" />
        <dc:creator>
          <cc:Agent>
            <dc:title>RexKramer1</dc:title>
          </cc:Agent>
        </dc:creator>
        <dc:rights>
          <cc:Agent>
            <dc:title>GNU General Public License v3.0</dc:title>
          </cc:Agent>
        </dc:rights>
        <dc:title>Boeing 717-200</dc:title>
      </cc:Work>
    </rdf:RDF>
  </metadata>
  <g
     inkscape:groupmode="layer"
     id="layer2"
     inkscape:label="Pfade"
     style="display:inline">
    <path
       style="fill:#000000;
       d="m 14.68312,0.06681738 -0.801809,0.70158251 -0.801809,2.77292121 -0.183748,1.5702084 -0.0167,10.7910075 -12.41132832,6.598216 -0.30067823,0.88533 0.050113,0.567948 0.56794774,-0.267269 12.11064981,-2.722809 0.03341,3.374278 H 12.778829 L 12.728719,23.402788 12.57838,23.068701 12.428041,22.868249 H 10.92465 l -0.283974,0.350791 -0.06682,0.684878 0.0167,1.603617 0.167044,1.586912 0.434313,1.870887 1.202712,-0.03341 1.219418,1.369759 0.584652,1.820772 -5.7295906,3.741772 0.066817,1.286235 5.9300426,-1.820773 0.167044,0.768401 h 0.150339 l 0.150339,-0.768401 5.913338,1.753958 -0.06682,-1.286235 -5.545843,-3.725069 0.534539,-1.804069 1.169305,-1.302941 1.219417,0.0167 0.3842,-1.870887 0.183747,-1.670435 -0.06682,-1.937704 -0.06682,-0.434313 -0.133635,-0.200452 h -1.486687 l -0.183748,0.183748 -0.183747,0.467722 -0.03341,0.801808 -0.167043,4e-6 -0.0167,-3.390982 12.361215,2.789626 0.484426,0.267269 0.01669,-0.684878 L 28.831693,22.350405 16.386963,15.885832 16.45378,5.1950514 16.320145,3.5580256 15.484928,0.80180856 Z"
       id="path1414"
       sodipodi:nodetypes="cccccccccccccccccccccccccccccccccccccccccccccccccccccccc" />
  </g>
  <g
     inkscape:groupmode="layer"
     id="layer3"
</svg>
