<?xml version="1.0" encoding="UTF-8"?>
<svg xmlns="http://www.w3.org/2000/svg" viewBox="0 0 18.520833 18.520833">
  <title>A321-200</title>
  <path fill="#000000" stroke="#000000" stroke-width="0.05" d="M 9.2599038,0.45197135 9.1989256,0.46540722 9.1296792,0.5134663 9.0273598,0.61940299 8.8847329,0.83127636 8.7674274,1.0684712 8.6785439,1.2808614 8.6092975,1.4792989 8.5245482,1.8069274 8.4857908,2.0802958 8.4764908,2.26168 v 4.554244 l -0.00982,0.1064535 -0.034623,0.088367 -0.05581,0.081132 -0.067696,0.061495 -0.084749,0.048059 -0.048059,0.025321 -0.8268229,0.4201293 0.011369,-0.063562 0.015503,-0.1560628 0.015503,-0.1850016 0.00775,-0.160197 0.024805,-0.00775 -0.024805,-0.061495 V 6.8526143 L 7.3835325,6.7141214 7.3602781,6.5962992 7.3468423,6.544106 7.327722,6.5306701 H 6.6817666 l -0.01912,0.013436 -0.023254,0.081132 -0.026872,0.1694987 -0.00982,0.1968872 0.013436,0.2408122 0.075448,0.6743774 0.057878,0.00982 v 0.038757 l -4.1093099,2.1259684 -0.057878,0.03462 -0.032556,0.03256 -0.031006,0.05581 -0.00982,0.06201 v 0.645438 h 0.044442 v -0.198436 l 1.9719727,-0.588078 v 0.131258 l 0.01912,0.100252 0.023254,0.06356 h 0.023254 l 0.026872,-0.08113 0.017053,-0.109554 V 10.092727 L 5.937626,9.6994689 v 0.1390096 l 0.023254,0.1095541 0.015503,0.046509 h 0.026872 l 0.028939,-0.096635 0.01757,-0.094051 V 9.6684631 L 6.652828,9.4834615 h 0.3162598 l 0.00362,0.088883 0.027389,0.055811 0.032556,-0.059428 v -0.081132 l 0.2526977,0.00982 -0.00207,0.109554 0.023254,0.1157552 0.022738,0.067179 0.019637,-0.00155 0.038241,-0.09095 0.013436,-0.092501 0.00207,-0.1059367 1.0738363,0.015503 v 4.309815 l 0.00362,0.254248 0.044442,0.586011 0.069246,0.458886 0.083199,0.379305 0.069246,0.293006 0.011369,0.07752 -0.013436,0.05581 -0.024805,0.05168 -0.027389,0.03101 -0.080615,0.05426 -1.7595826,1.154451 -0.033073,0.03462 -0.023254,0.03824 -0.00155,0.04444 v 0.414445 l 2.1197615,-0.504887 v -0.189136 l 0.044442,0.287321 0.092501,0.329696 0.1173055,0.358634 v 0.03462 l 0.095842,3.97e-4 0.08916,-3.97e-4 v -0.03462 l 0.1173055,-0.358634 0.092501,-0.329696 0.044442,-0.287321 v 0.189136 l 2.1197673,0.504879 v -0.414445 l -0.0015,-0.04444 -0.02325,-0.03824 -0.03256,-0.03462 -1.7600992,-1.154451 -0.080615,-0.05426 -0.027388,-0.03101 -0.024805,-0.05168 -0.013436,-0.05581 0.011369,-0.07752 0.069246,-0.293006 0.083199,-0.379305 0.069246,-0.458886 0.044442,-0.586011 0.0036,-0.254248 V 9.5144673 l 1.073837,-0.015503 0.0021,0.1059367 0.01344,0.092501 0.03824,0.09095 0.01964,0.00155 0.02274,-0.067179 0.02325,-0.1157552 -0.0021,-0.109554 0.252698,-0.00982 v 0.081132 l 0.03256,0.059428 0.02739,-0.055811 0.0036,-0.088883 h 0.31626 l 0.603064,0.1850016 v 0.1353922 l 0.01757,0.094051 0.02894,0.096635 h 0.02687 l 0.0155,-0.046509 0.02325,-0.1095541 V 9.6994689 l 1.302763,0.3932581 v 0.136942 l 0.01705,0.109554 0.02687,0.08113 h 0.02324 l 0.02325,-0.06356 0.01912,-0.100252 v -0.131258 l 1.971973,0.588078 v 0.198437 h 0.04444 V 10.26636 l -0.0098,-0.06201 -0.03101,-0.05581 -0.03256,-0.03256 -0.05788,-0.03462 -4.10931,-2.1259687 v -0.038757 l 0.05788,-0.00982 0.07545,-0.6743774 0.01344,-0.2408122 -0.0098,-0.1968872 -0.02687,-0.1694987 -0.02326,-0.081132 -0.01912,-0.013436 h -0.645956 l -0.01912,0.013436 -0.01344,0.052193 -0.02325,0.1178222 -0.0155,0.1384929 v 0.1601969 l -0.02481,0.061495 0.02481,0.00775 0.0078,0.160197 0.0155,0.1850016 0.0155,0.1560628 0.01137,0.063562 -0.826823,-0.4201293 -0.04806,-0.025321 -0.08475,-0.048059 -0.0677,-0.061495 -0.05581,-0.081132 -0.03462,-0.088367 -0.0098,-0.1064535 V 2.26168 L 10.035051,2.0802958 9.996293,1.8069274 9.9115436,1.4792989 9.8422972,1.2808614 9.7534137,1.0684712 9.6361082,0.83127636 9.4934813,0.61940299 9.3911619,0.5134663 9.3219155,0.46540722 9.2609373,0.45197135 Z"/>
</svg>
