<?xml version="1.0" encoding="UTF-8" standalone="no"?>
<svg
   width="80mm"
   height="80mm"
   viewBox="-33 -31 80 80"
   version="1.1"
   id="svg1542"
   inkscape:version="1.2.1 (9c6d41e410, 2022-07-14)"
   sodipodi:docname="H64 (Apache) mit Bitmap.svg"
   xmlns:inkscape="http://www.inkscape.org/namespaces/inkscape"
   xmlns:sodipodi="http://sodipodi.sourceforge.net/DTD/sodipodi-0.dtd"
   xmlns="http://www.w3.org/2000/svg"
   xmlns:svg="http://www.w3.org/2000/svg"
   xmlns:rdf="http://www.w3.org/1999/02/22-rdf-syntax-ns#"
   xmlns:cc="http://creativecommons.org/ns#"
   xmlns:dc="http://purl.org/dc/elements/1.1/">
  <title
     id="title548">AH-64 Apache</title>
  <defs
     id="defs1536" />
  <sodipodi:namedview
     id="base"
     pagecolor="#ffffff"
     bordercolor="#666666"
     borderopacity="1.0"
     inkscape:pageopacity="0.0"
     inkscape:pageshadow="2"
     inkscape:zoom="7.9195959"
     inkscape:cx="131.38297"
     inkscape:cy="146.03018"
     inkscape:document-units="mm"
     inkscape:current-layer="layer2"
     inkscape:document-rotation="0"
     showgrid="false"
     inkscape:window-width="1920"
     inkscape:window-height="1121"
     inkscape:window-x="2391"
     inkscape:window-y="140"
     inkscape:window-maximized="1"
     inkscape:snap-global="false"
     inkscape:showpageshadow="2"
     inkscape:pagecheckerboard="0"
     inkscape:deskcolor="#d1d1d1" />
  <metadata
     id="metadata1539">
    <rdf:RDF>
      <cc:Work
         rdf:about="">
        <dc:format>image/svg+xml</dc:format>
        <dc:type
           rdf:resource="http://purl.org/dc/dcmitype/StillImage" />
        <dc:creator>
          <cc:Agent>
            <dc:title>RexKramer1</dc:title>
          </cc:Agent>
        </dc:creator>
        <dc:rights>
          <cc:Agent>
            <dc:title>GNU General Public License v3.0</dc:title>
          </cc:Agent>
        </dc:rights>
        <dc:title>AH-64 Apache</dc:title>
      </cc:Work>
    </rdf:RDF>
  </metadata>
  <g
     inkscape:groupmode="layer"
     id="layer2"
     inkscape:label="Pfade"
     style="display:inline">
    <path
       style="fill:#000000;stroke-miterlimit:4;stroke-dasharray:none"
       d="M 5.1246893,0.00456801 5.0674952,1.0854187 4.8577825,1.3609299 4.8196543,1.5728615 4.6290073,1.9331449 4.5336833,2.4205873 4.4955551,2.7596776 4.438361,2.7384845 4.4955551,2.5901329 H 4.343037 L 4.247713,2.8444506 4.4955547,2.9716097 4.5336827,3.2259269 4.343035,3.2895059 4.381163,3.5226306 4.5718107,3.6285962 4.5603227,4.0723738 H 4.283967 L 4.1289378,4.7092711 4.2570054,4.7317502 4.0547929,5.2562543 4.0615312,5.0239738 3.8997609,4.8591298 3.7447317,4.9940027 0.96094239,1.5847281 0.61044099,1.4123912 0.32060335,1.4423618 0.14535267,1.622192 3.7110295,5.8481933 3.7312488,6.0804738 3.6099217,6.0579947 3.5020752,5.8182218 3.3942287,5.9680796 l 0.013481,0.1798298 -0.1550293,0.044959 0.00674,-0.2547592 0.026962,-0.059943 -0.1078476,-0.292224 -0.087625,0.097408 -0.1213275,-0.00749 -0.067404,-0.089915 -0.1213275,0.1198863 0.020219,0.2322804 0.026962,0.6294045 -0.094366,0.1273796 0.1011065,0.1723368 -0.00674,0.9890639 h 0.1819914 l 0.00674,-0.2322801 0.067404,0.029971 0.00675,0.1948154 0.1617698,-0.00749 V 7.3168103 l 0.1348081,0.014989 0.060664,0.1648445 0.1145871,-0.00749 0.026962,-0.1123934 0.1213275,-0.00749 0.0337,0.142365 0.1280681,-0.014989 V 7.3317927 l 0.3302801,-0.014989 0.040443,0.3296878 -0.3437607,0.2472658 -3.59937901,3.7089897 -0.0471829,0.262252 v 0.329688 l 0.19547188,0.209801 3.76114903,-3.9637487 0.0337,-0.3147013 0.074145,-0.059943 0.1550292,0.5544753 -0.1213275,-0.00749 0.1011064,1.3487238 0.1078465,0.7642769 0.1078463,0.232281 0.1752509,3.461724 0.1011059,0.142365 0.00674,0.531997 -1.0380227,-0.01499 -0.00674,-0.157351 -0.1550293,0.0075 0.1617694,1.768327 0.121328,-0.01499 -0.053924,-0.674362 h 0.074145 l -0.020219,-0.30721 0.5864153,0.01499 -0.013481,0.427097 0.3639821,0.217294 0.080884,0.719321 0.1482892,-0.01499 0.020219,-0.621912 0.1819909,0.0075 0.094366,-0.164844 -0.00674,0.989065 0.1078466,0.02997 0.0337,-1.026527 0.094366,-0.269746 -0.0337,-0.28473 h 0.5594525 l 0.1819909,0.974085 0.114587,-0.0075 -0.1617697,-1.738355 -0.094366,-0.0075 -0.074144,0.164844 H 5.7196727 l 0.013481,-0.509517 h -0.087626 l -0.020219,0.494532 -0.3505012,0.0075 0.047182,-0.606926 0.040443,-0.03747 0.1617697,-3.469218 0.2426547,-0.46456 L 5.894926,9.7220281 5.888187,8.740456 5.7533788,8.6205701 5.9488508,8.0286294 6.10388,8.2234455 9.3527576,12.104773 9.6358551,12.254631 9.9122116,12.239642 10.100943,12.022347 6.5487471,7.8188249 6.2926118,7.8113304 6.2993508,7.6914437 6.0634367,7.5715571 l 0.026962,-0.3221952 0.2426552,0.029978 0.040443,0.2023079 0.1145871,-0.014989 0.0337,-0.089915 0.114587,0.022477 0.00674,0.1049002 0.1415487,-0.014989 0.047183,-0.194816 0.2426544,0.022477 0.026963,0.1348717 0.1011066,-0.074929 0.053925,0.059943 0.094366,-0.052448 0.094365,-0.014989 -0.013478,-0.546982 0.141548,-0.1648444 -0.1280673,-0.1573506 -0.026963,-0.4046174 0.033702,-0.029971 0.020217,-0.35966 -0.033702,-0.037462 -0.00674,-0.3072094 -0.33028,0.014988 v 0.82422 L 6.825101,6.1179383 V 5.8032365 L 6.3937144,5.8182241 6.3397911,5.7133232 9.9054678,2.0492899 10.006574,1.6072081 9.9324299,1.4273784 9.7774004,1.2700272 6.1106175,5.1738339 6.0499537,4.7542307 c 0,0 0.094366,-0.022479 0.101106,-0.059944 0.00674,-0.037462 -0.0337,-0.6069251 -0.0337,-0.6069251 L 5.9690707,3.9300109 5.7668583,3.9674776 5.76012,2.9559349 5.9151493,2.8585269 5.9286303,2.5588104 5.7196774,2.5363314 5.659014,1.9518842 5.5039843,1.4123944 5.3422145,1.1576357 5.2276275,1.0901997 Z"
       id="path1414" />
  </g>
  <g
     inkscape:groupmode="layer"
     id="layer3"
</svg>
