<?xml version="1.0" encoding="UTF-8" standalone="no"?>
<svg
   width="80mm"
   height="80mm"
   viewBox="-3 -5 80 80"
   version="1.1"
   id="svg1542"
   inkscape:version="1.2.1 (9c6d41e410, 2022-07-14)"
   sodipodi:docname="A124 mit Bitmap.svg"
   xmlns:inkscape="http://www.inkscape.org/namespaces/inkscape"
   xmlns:sodipodi="http://sodipodi.sourceforge.net/DTD/sodipodi-0.dtd"
   xmlns="http://www.w3.org/2000/svg"
   xmlns:svg="http://www.w3.org/2000/svg"
   xmlns:rdf="http://www.w3.org/1999/02/22-rdf-syntax-ns#"
   xmlns:cc="http://creativecommons.org/ns#"
   xmlns:dc="http://purl.org/dc/elements/1.1/">
  <title
     id="title2408">Antonov An-124</title>
  <defs
     id="defs1536" />
  <sodipodi:namedview
     id="base"
     pagecolor="#ffffff"
     bordercolor="#666666"
     borderopacity="1.0"
     inkscape:pageopacity="0.0"
     inkscape:pageshadow="2"
     inkscape:zoom="1.979899"
     inkscape:cx="87.630733"
     inkscape:cy="137.63328"
     inkscape:document-units="mm"
     inkscape:current-layer="layer6"
     inkscape:document-rotation="0"
     showgrid="false"
     inkscape:window-width="1920"
     inkscape:window-height="1121"
     inkscape:window-x="2391"
     inkscape:window-y="140"
     inkscape:window-maximized="1"
     inkscape:snap-global="false"
     inkscape:showpageshadow="2"
     inkscape:pagecheckerboard="0"
     inkscape:deskcolor="#d1d1d1" />
  <metadata
     id="metadata1539">
    <rdf:RDF>
      <cc:Work
         rdf:about="">
        <dc:format>image/svg+xml</dc:format>
        <dc:type
           rdf:resource="http://purl.org/dc/dcmitype/StillImage" />
        <dc:creator>
          <cc:Agent>
            <dc:title>RexKramer1</dc:title>
          </cc:Agent>
        </dc:creator>
        <dc:rights>
          <cc:Agent>
            <dc:title>GNU General Public License v3.0</dc:title>
          </cc:Agent>
        </dc:rights>
        <dc:title>Antonov An-124</dc:title>
      </cc:Work>
    </rdf:RDF>
  </metadata>
  <g
     inkscape:groupmode="layer"
     id="layer6"
     inkscape:label="Pfade"
     style="display:inline">
    <path
       style="fill:#000000;
       d="m 36.682743,-0.13363476 -1.5368,1.46998236 -1.870888,4.0758603 -0.334086,2.472243 -0.133634,1.9377041 -0.06682,10.824416 -4.409948,3.006782 0.06682,-0.935444 -0.06682,-2.338608 -0.334087,-0.668174 -2.405426,0.03341 -0.300678,0.534539 v 4.276313 l 0.534539,0.668173 -5.479025,3.474504 0.334086,-1.135896 v -2.906555 l -0.267269,-0.467722 -2.405426,-0.06682 -0.267269,0.701582 -0.06682,3.942226 0.701583,0.868625 -16.7377541,9.421251 -0.86862601,1.202714 -0.46772168,1.603616 -0.0668174,1.469982 10.99145919,-3.173825 0.300678,0.501131 0.334087,-0.133635 0.06682,-0.634765 3.0736,-1.00226 0.167044,0.567947 h 0.367495 V 38.72067 l 3.006782,-0.868627 0.200452,0.501132 0.334087,-0.100227 0.100226,-0.701583 3.107009,-0.7684 0.167043,0.534541 0.334087,-0.133636 0.133635,-0.601356 3.340869,-0.902033 0.23386,0.567947 0.300678,-0.03341 0.133636,-0.734992 4.242903,-1.035669 0.23386,0.567947 h 0.334087 l 0.06682,-0.768398 0.801809,-0.167045 -0.06682,4.476764 0.233863,2.071341 -0.03341,9.454657 0.334086,4.543584 0.434314,3.207234 -9.521478,7.316502 -0.434313,1.135896 0.03341,2.138156 11.49259,-2.505652 0.734991,1.971114 0.801809,0.668174 0.801809,-0.80181 0.46772,-2.037929 11.592817,2.80633 -0.06682,-2.605879 -0.501129,-1.035669 -9.421251,-7.049233 0.534537,-3.374279 0.367496,-4.376539 -0.133633,-9.588293 0.267269,-2.071338 -0.06682,-4.276313 0.734991,0.167042 0.23386,0.835219 0.400905,0.100226 0.167044,-0.734991 4.209495,1.102487 0.06682,0.634765 0.334086,0.100226 0.267269,-0.668173 3.307461,0.968851 0.06682,0.601356 0.367496,0.06682 0.100226,-0.534541 3.140417,0.935445 0.167042,0.668174 0.367495,0.167042 0.133636,-0.734989 2.939965,0.902033 0.100225,0.734992 0.400904,0.100226 0.100227,-0.601358 2.873147,0.902036 0.267269,0.835218 0.400905,0.100225 0.267269,-0.701583 11.02487,3.173825 -0.233863,-2.405425 -0.868624,-1.403164 -0.935445,-0.80181 -16.203213,-9.020346 0.734991,-0.567947 0.100224,-1.603618 -0.100224,-2.739512 -0.334089,-0.601356 -2.438834,0.03341 -0.267269,0.501131 0.133636,3.441096 0.167042,0.534537 -5.545841,-3.441094 0.601355,-0.434313 0.267269,-1.637026 -0.133633,-2.772921 -0.434314,-0.601357 -2.204974,0.03341 -0.467722,0.467721 0.100227,2.973374 0.100227,0.567948 -4.677217,-3.207235 0.03341,-10.523737 -0.08366,-2.1185161 -0.614212,-3.0238094 -1.6064,-3.6852679 z"
       id="path3746"
       sodipodi:nodetypes="ccccccccccccccccccccccccccccccccccccccccccccccccccccccccccccccccccccccccccccccccccccccccccccccccccccccccccccccccccccccccccccc" />
  </g>
  <g
     inkscape:groupmode="layer"
     id="layer7"
</svg>
