<?xml version="1.0" encoding="UTF-8"?>
<svg xmlns="http://www.w3.org/2000/svg" viewBox="0 0 80 55">
  <title>B-2A Spirit</title>
  <!-- Top-down flying wing planform based on B-2 Spirit geometry -->
  <path d="
    M 40,2
    C 41,4 42,7 43,10
    L 44,13
    L 46,16
    L 49,18
    L 53,20
    L 58,22
    L 63,24
    L 68,26
    L 73,28
    L 77,30
    L 79,31
    L 79,32
    L 77,33
    L 73,34
    L 69,35
    L 65,36
    L 62,37
    L 58,38
    L 55,39
    L 53,40
    L 52,41
    L 50,44
    L 49,47
    L 48,50
    L 47,52
    L 46,50
    L 45,47
    L 44,44
    L 43,42
    L 42,40
    L 41,39
    L 40,38.5
    L 39,39
    L 38,40
    L 37,42
    L 36,44
    L 35,47
    L 34,50
    L 33,52
    L 32,50
    L 31,47
    L 30,44
    L 28,41
    L 27,40
    L 25,39
    L 22,38
    L 18,37
    L 15,36
    L 11,35
    L 7,34
    L 3,33
    L 1,32
    L 1,31
    L 3,30
    L 7,28
    L 12,26
    L 17,24
    L 22,22
    L 27,20
    L 31,18
    L 34,16
    L 36,13
    L 37,10
    C 38,7 39,4 40,2
    Z
  " fill="#000000" stroke="none"/>
</svg>
