<svg xmlns="http://www.w3.org/2000/svg" viewBox="0 0 80 80" width="80" height="80">
  <!-- B-2 Spirit top-down silhouette - flying wing planform -->
  <path d="
    M 40 8
    L 42 12
    L 44 16
    L 46 20
    L 50 24
    L 56 28
    L 64 32
    L 72 35
    L 78 37
    L 78 39
    L 74 40
    L 68 41
    L 60 42
    L 54 43
    L 50 44
    L 48 46
    L 46 50
    L 44 54
    L 43 58
    L 42 62
    L 41 58
    L 41 54
    L 40 50
    L 39 54
    L 39 58
    L 38 62
    L 37 58
    L 36 54
    L 34 50
    L 32 46
    L 30 44
    L 26 43
    L 20 42
    L 12 41
    L 6 40
    L 2 39
    L 2 37
    L 8 35
    L 16 32
    L 24 28
    L 30 24
    L 34 20
    L 36 16
    L 38 12
    Z
  " fill="#000000" stroke="none"/>
</svg>
