<?xml version="1.0" encoding="UTF-8" standalone="no"?>
<svg
   width="80mm"
   height="80mm"
   viewBox="-26 -25 80 80"
   version="1.1"
   id="svg1542"
   inkscape:version="1.2.1 (9c6d41e410, 2022-07-14)"
   sodipodi:docname="GL5T mit Bitmap.svg"
   xmlns:inkscape="http://www.inkscape.org/namespaces/inkscape"
   xmlns:sodipodi="http://sodipodi.sourceforge.net/DTD/sodipodi-0.dtd"
   xmlns="http://www.w3.org/2000/svg"
   xmlns:svg="http://www.w3.org/2000/svg"
   xmlns:rdf="http://www.w3.org/1999/02/22-rdf-syntax-ns#"
   xmlns:cc="http://creativecommons.org/ns#"
   xmlns:dc="http://purl.org/dc/elements/1.1/">
  <title
     id="title7083">Bombardier Global Express 5000</title>
  <defs
     id="defs1536" />
  <sodipodi:namedview
     id="base"
     pagecolor="#ffffff"
     bordercolor="#666666"
     borderopacity="1.0"
     inkscape:pageopacity="0.0"
     inkscape:pageshadow="2"
     inkscape:zoom="5.6"
     inkscape:cx="137.58929"
     inkscape:cy="155.625"
     inkscape:document-units="mm"
     inkscape:current-layer="layer4"
     inkscape:document-rotation="0"
     showgrid="false"
     inkscape:snap-global="false"
     inkscape:window-width="1920"
     inkscape:window-height="1121"
     inkscape:window-x="2391"
     inkscape:window-y="140"
     inkscape:window-maximized="1"
     inkscape:showpageshadow="2"
     inkscape:pagecheckerboard="0"
     inkscape:deskcolor="#d1d1d1" />
  <metadata
     id="metadata1539">
    <rdf:RDF>
      <cc:Work
         rdf:about="">
        <dc:format>image/svg+xml</dc:format>
        <dc:type
           rdf:resource="http://purl.org/dc/dcmitype/StillImage" />
        <dc:creator>
          <cc:Agent>
            <dc:title>RexKramer1</dc:title>
          </cc:Agent>
        </dc:creator>
        <dc:rights>
          <cc:Agent>
            <dc:title>GNU General Public License v3.0</dc:title>
          </cc:Agent>
        </dc:rights>
        <dc:title>Bombardier Global Express 5000</dc:title>
      </cc:Work>
    </rdf:RDF>
  </metadata>
  <g
     inkscape:groupmode="layer"
     id="layer4"
     inkscape:label="Pfade">
    <path
       style="fill:#000000;
       d="m 14.349033,0 -1.018966,1.5200954 -0.350791,1.7205477 -0.0167,6.8821899 -12.52825902,9.638407 -0.0835217,0.451018 -0.48442601,0.668174 0.08352172,0.601356 0.56794775,-0.601356 6.83207716,-3.908817 2.8898521,-0.801809 2.722808,-0.250565 0.0167,3.257347 H 12.76212 l -0.133635,-0.350791 -1.252826,-0.05011 -0.133635,0.283974 -0.183747,1.135896 0.03341,1.186008 0.451018,1.854182 1.119191,0.01671 0.167043,-0.734991 0.634765,0.317382 0.283974,1.269531 -3.441095,3.641548 0.0167,0.918739 3.95893,-2.355314 3.858704,2.37202 -0.03341,-1.018966 -3.340869,-3.49121 0.217157,-1.236122 0.785104,-0.484426 0.150339,0.751696 1.1526,-0.0167 0.417608,-1.854182 -0.0167,-1.302939 -0.11693,-0.902035 -0.167044,-0.300678 -1.169304,0.01671 -0.183748,0.367495 -0.250565,0.01671 0.03341,-3.30746 3.006783,0.267269 2.572468,0.751696 6.932305,4.142678 0.517834,0.467721 V 20.91384 L 28.180231,20.228962 27.996483,19.694423 15.635267,10.172946 15.618563,3.2239386 15.267772,1.4365737 Z"
       id="path2054"
       sodipodi:nodetypes="ccccccccccccccccccccccccccccccccccccccccccccccccccccc" />
  </g>
  <g
     inkscape:groupmode="layer"
     id="layer6"
</svg>
