<?xml version="1.0" encoding="UTF-8" standalone="no"?>
<svg
   width="80mm"
   height="80mm"
   viewBox="-31 -25 80 80"
   version="1.1"
   id="svg1542"
   inkscape:version="1.2.1 (9c6d41e410, 2022-07-14)"
   sodipodi:docname="H47 mit Bitmap.svg"
   xmlns:inkscape="http://www.inkscape.org/namespaces/inkscape"
   xmlns:sodipodi="http://sodipodi.sourceforge.net/DTD/sodipodi-0.dtd"
   xmlns="http://www.w3.org/2000/svg"
   xmlns:svg="http://www.w3.org/2000/svg"
   xmlns:rdf="http://www.w3.org/1999/02/22-rdf-syntax-ns#"
   xmlns:cc="http://creativecommons.org/ns#"
   xmlns:dc="http://purl.org/dc/elements/1.1/">
  <title
     id="title239">CH-47 Chinook</title>
  <defs
     id="defs1536" />
  <sodipodi:namedview
     id="base"
     pagecolor="#ffffff"
     bordercolor="#666666"
     borderopacity="1.0"
     inkscape:pageopacity="0.0"
     inkscape:pageshadow="2"
     inkscape:zoom="5.6"
     inkscape:cx="138.125"
     inkscape:cy="152.76786"
     inkscape:document-units="mm"
     inkscape:current-layer="layer2"
     inkscape:document-rotation="0"
     showgrid="false"
     inkscape:window-width="1920"
     inkscape:window-height="1121"
     inkscape:window-x="2391"
     inkscape:window-y="140"
     inkscape:window-maximized="1"
     inkscape:snap-global="false"
     inkscape:showpageshadow="2"
     inkscape:pagecheckerboard="0"
     inkscape:deskcolor="#d1d1d1" />
  <metadata
     id="metadata1539">
    <rdf:RDF>
      <cc:Work
         rdf:about="">
        <dc:format>image/svg+xml</dc:format>
        <dc:type
           rdf:resource="http://purl.org/dc/dcmitype/StillImage" />
        <dc:creator>
          <cc:Agent>
            <dc:title>RexKramer1</dc:title>
          </cc:Agent>
        </dc:creator>
        <dc:rights>
          <cc:Agent>
            <dc:title>GNU General Public License v3.0</dc:title>
          </cc:Agent>
        </dc:rights>
        <dc:title>CH-47 Chinook</dc:title>
      </cc:Work>
    </rdf:RDF>
  </metadata>
  <g
     inkscape:groupmode="layer"
     id="layer2"
     inkscape:label="Pfade"
     style="display:inline">
    <path
       style="fill:#000000;
       d="M 9.1777343,6.5437128 8.7406992,6.5909597 8.3981585,6.7917596 8.3745339,5.8822544 h -0.07087 L 8.2918524,6.8744419 8.0807268,7.4250816 7.9157713,8.2749151 7.5890529,8.2682291 6.8035712,7.8666294 3.0651503,8.2091704 3.0533393,8.1264881 2.1320222,8.2150761 2.143834,8.2800409 0.04134115,8.4276879 0.02362351,8.5635231 0.1063058,9.2604166 7.1047712,8.6580169 7.7071706,8.522182 l 0.00591,1.4646576 -0.2716705,0.1535524 -0.1653646,0.33073 0.011811,5.197172 -0.047247,-0.01181 -1.6772694,-3.815197 -0.779576,0.354353 0.8740701,1.937128 -0.094494,0.07087 0.3720703,0.767764 0.1063059,-0.01772 1.2284226,2.781669 0.017716,1.441034 0.035435,0.183082 0.2480468,0.259859 -0.02953,0.08268 0.1535531,0.313012 -0.047247,0.259858 0.1830821,-0.0059 0.017716,0.478376 0.094494,0.460659 0.1535528,0.466564 -4.5770556,5.799573 0.5728703,0.460658 h 0.064965 l 1.2756695,-1.671364 0.1063059,0.04134 0.5256231,-0.667364 -0.023625,-0.1004 2.2973863,-2.911598 0.047247,-0.57287 0.141741,0.141741 0.4075057,0.118118 0.2775762,0.04134 0.2480469,-0.03543 0.4429408,-0.141741 0.2952941,-0.295294 0.124024,-0.289388 0.177176,-0.472471 0.07087,-0.549246 0.555153,0.129929 7.022089,0.986282 0.118117,-0.738235 -0.06496,-0.07087 -2.04934,-0.27167 -0.01181,-0.08268 -0.891788,-0.12993 -0.02362,0.07087 -3.632115,-0.549247 -0.820917,0.342541 -0.03544,-0.224423 0.05315,-0.01181 0.124024,-0.437035 0.141741,-0.17127 0.08268,-0.289388 -0.02953,-6.968936 1.116211,1.576869 -0.03543,0.1004 0.490187,0.655552 0.1004,-0.01181 1.192988,1.771763 0.626023,-0.460658 0.0059,-0.03543 -3.484462,-4.990468 V 10.482933 L 11.043992,10.311663 10.884533,10.069522 10.606957,9.9159691 10.553804,9.100958 10.488839,8.5044641 10.264416,7.4473122 10.116769,7.0102771 10.778227,6.5555245 12.296038,3.1655506 12.40825,3.1832671 12.756696,2.4095982 12.733073,2.3328218 13.595331,0.46065847 13.571707,0.40159969 12.88072,0.09449405 9.7919457,6.626395 9.4257811,6.5732421 Z"
       id="path1414" />
  </g>
  <g
     inkscape:groupmode="layer"
     id="layer3"
</svg>
