<?xml version="1.0" encoding="UTF-8" standalone="no"?>
<svg
   width="80mm"
   height="80mm"
   viewBox="-15 -17 80 80"
   version="1.1"
   id="svg1542"
   inkscape:version="1.2.1 (9c6d41e410, 2022-07-14)"
   sodipodi:docname="IL-76TD mit Bitmap.svg"
   xmlns:inkscape="http://www.inkscape.org/namespaces/inkscape"
   xmlns:sodipodi="http://sodipodi.sourceforge.net/DTD/sodipodi-0.dtd"
   xmlns="http://www.w3.org/2000/svg"
   xmlns:svg="http://www.w3.org/2000/svg"
   xmlns:rdf="http://www.w3.org/1999/02/22-rdf-syntax-ns#"
   xmlns:cc="http://creativecommons.org/ns#"
   xmlns:dc="http://purl.org/dc/elements/1.1/">
  <title
     id="title1144">Ilyuschin IL-76TD</title>
  <defs
     id="defs1536" />
  <sodipodi:namedview
     id="base"
     pagecolor="#ffffff"
     bordercolor="#666666"
     borderopacity="1.0"
     inkscape:pageopacity="0.0"
     inkscape:pageshadow="2"
     inkscape:zoom="2.8"
     inkscape:cx="128.39286"
     inkscape:cy="164.10714"
     inkscape:document-units="mm"
     inkscape:current-layer="layer2"
     inkscape:document-rotation="0"
     showgrid="false"
     inkscape:window-width="1920"
     inkscape:window-height="1121"
     inkscape:window-x="2391"
     inkscape:window-y="140"
     inkscape:window-maximized="1"
     inkscape:snap-global="false"
     viewbox-x="-15"
     inkscape:showpageshadow="2"
     inkscape:pagecheckerboard="0"
     inkscape:deskcolor="#d1d1d1" />
  <metadata
     id="metadata1539">
    <rdf:RDF>
      <cc:Work
         rdf:about="">
        <dc:format>image/svg+xml</dc:format>
        <dc:type
           rdf:resource="http://purl.org/dc/dcmitype/StillImage" />
        <dc:creator>
          <cc:Agent>
            <dc:title>RexKramer1</dc:title>
          </cc:Agent>
        </dc:creator>
        <dc:rights>
          <cc:Agent>
            <dc:title>GNU General Public License v3.0</dc:title>
          </cc:Agent>
        </dc:rights>
        <dc:title>Ilyuschin IL-76TD</dc:title>
      </cc:Work>
    </rdf:RDF>
  </metadata>
  <g
     inkscape:groupmode="layer"
     id="layer2"
     inkscape:label="Pfade"
     style="display:inline">
    <path
       style="fill:#000000;
       d="M 25.52424,0.13363476 24.638909,1.1525998 23.586535,4.2429038 23.402788,5.128234 23.152222,5.3955037 v 0.3173825 l 0.05011,0.2672694 -0.217157,2.9900779 v 4.9945995 l -2.906556,1.687139 v -3.207235 l -0.217156,-0.751695 -1.570209,0.05011 -0.250565,0.785104 0.133635,3.825295 0.150339,0.26727 -2.572469,1.403164 0.05011,-3.574729 -0.233861,-0.3842 -1.436574,-0.03341 -0.300678,0.3842 0.11693,3.975634 0.150339,0.467722 -13.74767575,7.400025 -0.31738256,0.718286 -0.01670435,2.505652 6.71514676,-2.03793 0.1169305,0.300678 h 0.1837478 l 0.066817,-0.417608 0.4677217,-0.167044 0.1837479,0.41761 0.2338607,-0.01669 0.033409,-0.567947 2.5891733,-0.701583 0.200453,0.317382 0.183747,-0.467721 1.937704,-0.567948 0.150339,0.150339 0.183748,-0.217156 0.935443,-0.26727 0.317383,-0.0167 0.183748,0.434313 h 0.167043 l 0.133635,-0.50113 1.703843,-0.217157 0.217157,0.367496 0.283974,-0.417609 1.687138,-0.183748 0.183748,0.26727 0.167044,-0.367496 2.789626,-0.367495 0.11693,1.536799 0.451017,2.121451 0.467722,1.119192 0.08352,6.113791 0.851922,4.92778 -6.915599,4.627105 -0.3842,0.801809 -0.03341,1.637024 8.335468,-2.405425 0.183748,1.854182 0.200452,0.567949 h 0.233861 l 0.200452,-0.601358 0.150339,-1.937702 8.502512,2.622581 -0.133633,-1.854183 -0.50113,-0.851922 -6.815373,-4.510172 0.88533,-4.927783 0.11693,-6.180608 0.501129,-1.520095 0.317383,-1.570207 0.03341,-1.586913 2.856444,0.400905 0.167042,0.267269 0.250566,-0.250565 1.68714,0.250565 0.150338,0.400904 0.23386,-0.367495 1.703843,0.250565 0.217157,0.417609 h 0.11693 l 0.08352,-0.334087 0.651468,0.08352 0.734991,0.167044 0.06682,0.200452 0.267269,-0.11693 1.887593,0.567947 0.183748,0.434313 h 0.133633 l 0.183748,-0.300678 2.539061,0.734991 0.06682,0.517835 0.283975,0.08352 0.133633,-0.501132 0.467723,0.183748 0.133635,0.45102 0.283972,-0.334087 6.698443,2.00452 -0.01669,-2.238383 -0.400905,-1.018963 -13.614042,-7.232982 0.200453,-0.902034 -0.08352,-3.658252 -0.250563,-0.400904 -1.436574,0.05011 -0.217157,0.283974 0.01669,3.674955 -2.472242,-1.319643 0.200453,-1.319643 -0.05011,-3.123713 -0.267269,-0.567947 -1.45328,0.0167 -0.283972,0.751695 0.05011,3.207235 -2.956668,-1.670435 -3e-6,-5.0614164 L 27.779326,5.9801661 27.862846,5.6126705 27.812731,5.3286967 27.612284,5.0948359 27.41183,4.1593926 26.376161,1.1860191 Z"
       id="path1442"
       sodipodi:nodetypes="cccccccccccccccccccccccccccccccccccccccccccccccccccccccccccccccccccccccccccccccccccccccccccccccccccccccccccccccccccccccccccccc" />
  </g>
  <g
     inkscape:groupmode="layer"
     id="layer3"
</svg>
