<?xml version="1.0" encoding="UTF-8" standalone="no"?>
<!-- Created with Inkscape (http://www.inkscape.org/) -->

<svg
   width="80mm"
   height="80mm"
   viewBox="-16 -16 80 80"
   version="1.1"
   id="svg5"
   inkscape:version="1.2.1 (9c6d41e410, 2022-07-14)"
   sodipodi:docname="KC46 mit Bitmap.svg"
   xml:space="preserve"
   xmlns:inkscape="http://www.inkscape.org/namespaces/inkscape"
   xmlns:sodipodi="http://sodipodi.sourceforge.net/DTD/sodipodi-0.dtd"
   xmlns="http://www.w3.org/2000/svg"
   xmlns:svg="http://www.w3.org/2000/svg"
   xmlns:rdf="http://www.w3.org/1999/02/22-rdf-syntax-ns#"
   xmlns:cc="http://creativecommons.org/ns#"
   xmlns:dc="http://purl.org/dc/elements/1.1/"><title
     id="title2085">KC-46 Pegasus</title><sodipodi:namedview
     id="namedview7"
     pagecolor="#ffffff"
     bordercolor="#000000"
     borderopacity="0.25"
     inkscape:showpageshadow="2"
     inkscape:pageopacity="0.0"
     inkscape:pagecheckerboard="false"
     inkscape:deskcolor="#d1d1d1"
     inkscape:document-units="mm"
     showgrid="true"
     inkscape:zoom="4.4615365"
     inkscape:cx="151.1811"
     inkscape:cy="154.0949"
     inkscape:window-width="1920"
     inkscape:window-height="1121"
     inkscape:window-x="2391"
     inkscape:window-y="140"
     inkscape:window-maximized="1"
     inkscape:current-layer="layer2"><inkscape:grid
       type="xygrid"
       id="grid9" /></sodipodi:namedview><defs
     id="defs2" /><g
     inkscape:groupmode="layer"
     id="layer2"
     inkscape:label="Outline"
     style="display:inline;opacity:1;
       style="fill:#000000;
       d="m 23.746057,0.30543392 0.921562,0.75550998 1.293274,2.853852 0.34453,3.248426 0.06563,8.8429361 0.213281,0.360937 3.461706,2.510147 0.0164,-2.739834 0.557811,-0.410155 1.919523,-0.01641 0.459374,0.393748 0.01641,2.985927 -0.2625,0.426561 0.03282,1.115621 11.485594,7.853376 0.0696,-0.858469 0.116009,-0.371229 h 0.348028 l 0.162414,0.533643 0.0696,1.113689 2.436196,1.740138 0.139211,0.324827 -0.0696,1.99536 -2.552206,-1.136891 -0.162414,0.974477 h -0.440834 l -0.116009,-0.603248 -0.06961,-0.788863 -4.802785,-1.763342 -0.0464,0.278423 -0.232019,-0.0232 -0.06961,-0.464039 -3.596288,-1.229699 -0.162412,0.510443 -0.278421,-0.06961 -0.08121,-0.580044 -3.85151,-1.345711 -0.927251,-0.08883 -0.05883,0.552864 -0.464036,-0.0232 v -0.53364 l -3.201848,-0.09281 -0.139211,8.584688 -0.301625,3.039443 -0.208816,2.529001 7.23898,6.12529 -0.06961,1.693735 -8.283062,-2.436193 -0.139212,0.719256 0.928075,0.06961 0.0464,0.835266 -1.252898,0.116006 -0.220417,1.067286 -0.382831,1e-6 -0.301624,-1.067287 -1.206497,-0.0232 -0.0232,-0.974479 h 1.020882 l -0.11601,-0.835266 -8.25986,2.529002 -0.0232,-1.925754 7.030163,-5.846869 -0.37123,-2.691413 -0.162413,-3.132251 -0.0012,-8.433051 -3.177488,0.103584 -0.0232,0.603248 -0.464038,-0.0232 -0.09281,-0.510441 -0.801205,0.007 -3.88557,1.385116 v 0.556844 l -0.464037,0.06961 -0.09281,-0.510442 -3.6658931,1.415314 0.0464,0.371229 h -0.417633 l -0.0464,-0.278423 -4.663573,1.809744 -0.0464,0.85847 -0.162413,0.533643 -0.324826,-0.04641 -0.09281,-0.371229 -0.06961,-0.696055 -2.69141503,1.229699 0.0464,-2.204178 0.232018,-0.324826 2.22737903,-1.577727 0.185614,-1.067284 0.301624,-0.649652 0.185615,0.04641 0.208817,0.533641 -0.0232,0.672854 11.6009271,-7.958237 -0.116009,-0.858469 -0.208817,-0.348028 -0.0232,-3.178654 0.447631,-0.350843 1.94216,0.0028 0.278423,0.324826 0.0464,2.807425 3.526682,-2.436195 0.278422,-0.37123 0.09281,-8.9559171 0.417633,-3.201856 1.102088,-2.807425 z"
       id="path845"
       sodipodi:nodetypes="ccccccccccccccccccccccccccccccccccccccccccccccccccccccccccccccccccccccccccccccccccccccccccccccccccccccccccc" /></g><g
     inkscape:groupmode="layer"
     id="layer3"
     id="metadata2083"><rdf:RDF><cc:Work
         rdf:about=""><dc:creator><cc:Agent><dc:title>RexKramer1</dc:title></cc:Agent></dc:creator><dc:rights><cc:Agent><dc:title>GNU General Public License v3.0</dc:title></cc:Agent></dc:rights><dc:title>KC-46 Pegasus</dc:title></cc:Work></rdf:RDF></metadata></svg>
