<?xml version="1.0" encoding="UTF-8" standalone="no"?>
<svg
   width="80mm"
   height="80mm"
   viewBox="-27 -31 80 80"
   version="1.1"
   id="svg1542"
   inkscape:version="1.2.1 (9c6d41e410, 2022-07-14)"
   sodipodi:docname="V22 slow mit Bitmap.svg"
   xmlns:inkscape="http://www.inkscape.org/namespaces/inkscape"
   xmlns:sodipodi="http://sodipodi.sourceforge.net/DTD/sodipodi-0.dtd"
   xmlns="http://www.w3.org/2000/svg"
   xmlns:svg="http://www.w3.org/2000/svg"
   xmlns:rdf="http://www.w3.org/1999/02/22-rdf-syntax-ns#"
   xmlns:cc="http://creativecommons.org/ns#"
   xmlns:dc="http://purl.org/dc/elements/1.1/">
  <title
     id="title7544">V-22 Osprey (slow)</title>
  <defs
     id="defs1536" />
  <sodipodi:namedview
     id="base"
     pagecolor="#ffffff"
     bordercolor="#666666"
     borderopacity="1.0"
     inkscape:pageopacity="0.0"
     inkscape:pageshadow="2"
     inkscape:zoom="11.2"
     inkscape:cx="146.83036"
     inkscape:cy="153.70536"
     inkscape:document-units="mm"
     inkscape:current-layer="layer8"
     inkscape:document-rotation="0"
     showgrid="false"
     inkscape:window-width="1920"
     inkscape:window-height="1121"
     inkscape:window-x="2391"
     inkscape:window-y="140"
     inkscape:window-maximized="1"
     inkscape:snap-global="false"
     inkscape:showpageshadow="2"
     inkscape:pagecheckerboard="0"
     inkscape:deskcolor="#d1d1d1" />
  <metadata
     id="metadata1539">
    <rdf:RDF>
      <cc:Work
         rdf:about="">
        <dc:format>image/svg+xml</dc:format>
        <dc:type
           rdf:resource="http://purl.org/dc/dcmitype/StillImage" />
        <dc:creator>
          <cc:Agent>
            <dc:title>RexKramer1</dc:title>
          </cc:Agent>
        </dc:creator>
        <dc:rights>
          <cc:Agent>
            <dc:title>GNU General Public License v3.0</dc:title>
          </cc:Agent>
        </dc:rights>
        <dc:title>V-22 Osprey (slow)</dc:title>
      </cc:Work>
    </rdf:RDF>
  </metadata>
  <g
     inkscape:groupmode="layer"
     id="layer8"
     inkscape:label="Pfade"
     style="display:inline">
    <path
       style="fill:#000000;
       d="m 13.028367,0.31891742 -0.366165,0.22442334 -0.01181,-0.18898809 -0.08268,-0.15355282 -0.2008,0.34254091 0.02362,0.33072919 -0.496093,1.03943455 -0.165365,0.9567521 0.02362,2.0906808 L 11.386533,5.3152902 11.126674,5.8350075 7.6185823,5.4806548 9.815569,2.3387277 9.4375927,2.0434338 6.9216886,5.3979725 6.6854535,5.5515253 6.4374066,5.327102 6.2129833,5.2562315 5.8822542,5.3389138 5.6460191,5.5633371 5.5633368,5.8940662 5.5397121,6.1657367 0.51971593,5.6578311 0.44884541,6.2129836 4.7010774,6.7445127 5.0081833,6.8980655 5.2326066,6.9098765 5.4924652,6.8035706 5.6578298,6.8390057 5.7523239,7.0634293 5.9295,7.1933585 6.0803805,7.1995709 6.15555,7.2997972 5.9258652,7.4668406 8.0055563,12.064712 8.4816301,11.851731 6.8446043,8.0807252 6.878013,7.8552166 l 3.871232,0.4635455 0.158691,1.6453781 0.392552,1.3196428 0.517835,1.102487 0.06682,2.681048 -1.102486,0.02506 -0.04176,-0.175396 -0.125283,-0.1921 -0.175395,0.292326 v 1.252826 l 0.175395,0.902035 h 0.05846 l 0.0167,0.158691 4.760738,0.0167 0.03341,-0.208804 0.07517,-0.0167 0.09187,-1.169305 -0.0167,-0.876978 -0.141987,-0.350791 -0.175395,0.350791 -1.135896,-0.03341 0.07517,-2.664343 0.593004,-1.311292 0.45937,-1.8875905 -0.0084,-0.8268653 4.034099,-0.4927782 0.05011,0.2923262 -1.628674,3.8503518 0.484426,0.208804 2.079691,-4.5602861 -0.158691,-0.1002261 -0.0167,-0.1670436 0.242213,-0.041761 0.133635,-0.091874 0.05011,-0.2672696 0.359144,0.091874 0.400904,-0.00835 0.283974,-0.200452 L 25.7664,6.356008 25.616061,5.7880603 20.688279,6.3225993 20.629819,5.9801603 20.429366,5.5876083 20.045166,5.4539736 19.635958,5.562547 19.535732,5.7212383 19.33528,5.562547 16.804572,2.2133258 16.403667,2.5724692 18.458302,5.5124339 14.950389,5.9467469 14.716528,5.4289123 14.29892,4.8943733 14.315624,2.8230343 14.165285,1.9711128 13.597337,0.69323034 Z"
       id="path836" />
  </g>
  <g
     inkscape:groupmode="layer"
     id="layer9"
</svg>
