<?xml version="1.0" encoding="UTF-8" standalone="no"?>
<svg
   width="80mm"
   height="80mm"
   viewBox="-20 -19 80 80"
   version="1.1"
   id="svg1542"
   inkscape:version="1.2.1 (9c6d41e410, 2022-07-14)"
   sodipodi:docname="R135 mit Bitmap.svg"
   xmlns:inkscape="http://www.inkscape.org/namespaces/inkscape"
   xmlns:sodipodi="http://sodipodi.sourceforge.net/DTD/sodipodi-0.dtd"
   xmlns="http://www.w3.org/2000/svg"
   xmlns:svg="http://www.w3.org/2000/svg"
   xmlns:rdf="http://www.w3.org/1999/02/22-rdf-syntax-ns#"
   xmlns:cc="http://creativecommons.org/ns#"
   xmlns:dc="http://purl.org/dc/elements/1.1/">
  <title
     id="title4229">Boeing RC-135</title>
  <defs
     id="defs1536" />
  <sodipodi:namedview
     id="base"
     pagecolor="#ffffff"
     bordercolor="#666666"
     borderopacity="1.0"
     inkscape:pageopacity="0.0"
     inkscape:pageshadow="2"
     inkscape:zoom="3.959798"
     inkscape:cx="198.87378"
     inkscape:cy="166.29636"
     inkscape:document-units="mm"
     inkscape:current-layer="layer5"
     inkscape:document-rotation="0"
     showgrid="false"
     inkscape:window-width="1920"
     inkscape:window-height="1121"
     inkscape:window-x="2391"
     inkscape:window-y="140"
     inkscape:window-maximized="1"
     inkscape:snap-global="false"
     inkscape:showpageshadow="2"
     inkscape:pagecheckerboard="0"
     inkscape:deskcolor="#d1d1d1" />
  <metadata
     id="metadata1539">
    <rdf:RDF>
      <cc:Work
         rdf:about="">
        <dc:format>image/svg+xml</dc:format>
        <dc:type
           rdf:resource="http://purl.org/dc/dcmitype/StillImage" />
        <dc:creator>
          <cc:Agent>
            <dc:title>RexKramer1</dc:title>
          </cc:Agent>
        </dc:creator>
        <dc:rights>
          <cc:Agent>
            <dc:title>GNU General Public License v3.0</dc:title>
          </cc:Agent>
        </dc:rights>
        <dc:title>Boeing RC-135</dc:title>
      </cc:Work>
    </rdf:RDF>
  </metadata>
  <g
     inkscape:groupmode="layer"
     id="layer5"
     inkscape:label="Pfade"
     style="display:inline">
    <path
       style="opacity:1;fill:#000000;
       d="m 20.579753,0.06681738 -0.434312,0.33408689 -0.501131,1.57020843 -0.567948,2.4054258 -0.247525,2.3149849 -0.08656,1.1595189 -0.367496,0.868626 -0.06681,7.9178597 0.200453,0.400904 -0.06682,0.334087 -4.944486,3.808591 v -2.171565 l -0.233861,-0.601356 -0.100226,-0.334087 -1.837478,-0.03341 -0.167043,0.400904 -0.233861,0.668174 v 2.104747 l 0.334087,1.135896 0.400904,0.06682 -4.4767644,3.441096 0.1670433,-0.65147 0.016703,-1.403165 -0.1670437,-0.718287 -0.300678,-0.367495 -1.8541825,0.0167 -0.2171565,0.317382 -0.066817,0.618061 v 2.171565 l 0.3006783,1.035672 0.434313,0.183748 c 0,0 -5.02800794,3.958928 -4.99459927,3.89211 0.0334087,-0.06682 -0.11693041,-1.018963 -0.11693041,-1.018963 L 0.08352173,30.084527 0.28397387,31.170308 0,32.089047 l 0.01670434,1.269529 0.21715649,0.501132 16.06958017,-7.366617 0.851922,-0.03341 0.835217,0.400905 0.534539,0.7684 0.233861,5.479026 0.551243,4.075859 -5.662773,4.326427 v 2.138156 l 6.781964,-1.670436 6.330946,1.854184 -0.11693,-2.355313 -5.044711,-4.259609 0.634765,-4.744035 0.11693,-2.522355 -0.03341,-2.037929 0.835217,-1.169305 0.701583,-0.334087 0.952148,0.08352 15.635268,7.734112 c 0,0 0.283972,-0.434313 0.317381,-0.517834 0.03341,-0.08352 -0.100225,-1.637025 -0.100225,-1.637025 l -0.183747,-0.65147 0.150339,-1.052375 -0.317384,-0.01669 -0.167042,0.818512 -4.877671,-3.908816 0.601356,-0.03341 0.250566,-1.65373 0.01669,-2.138156 -0.300678,-0.517835 h -1.870887 l -0.400905,0.584652 -0.01669,1.971113 0.05011,0.584652 -4.46006,-3.491208 0.534538,-0.08352 0.400904,-1.302939 -0.06682,-2.3052 -0.183748,-0.334087 -0.217156,-0.350791 h -1.753955 l -0.167045,0.283974 -0.23386,0.734991 0.05011,2.021226 -5.044711,-3.842 -0.0167,-0.451017 0.250573,-0.3675 0.03341,-7.9178593 -0.350791,-0.7349911 -0.0049,-1.2460805 -0.429421,-2.2451275 -0.517835,-2.4471867 -0.3842,-1.57856068 z"
       id="path3317"
       sodipodi:nodetypes="cccccccccccccccccccccccccccccccscccccccccccccccccccccccccscccccccccccccccccccccccccccccccccc" />
  </g>
  <g
     inkscape:groupmode="layer"
     id="layer6"
</svg>
