<?xml version="1.0" encoding="UTF-8" standalone="no"?>
<svg
   width="80mm"
   height="80mm"
   viewBox="-31 -32 80 80"
   version="1.1"
   id="svg1542"
   inkscape:version="1.2.1 (9c6d41e410, 2022-07-14)"
   sodipodi:docname="S61 mit Bitmap.svg"
   xmlns:inkscape="http://www.inkscape.org/namespaces/inkscape"
   xmlns:sodipodi="http://sodipodi.sourceforge.net/DTD/sodipodi-0.dtd"
   xmlns="http://www.w3.org/2000/svg"
   xmlns:svg="http://www.w3.org/2000/svg"
   xmlns:rdf="http://www.w3.org/1999/02/22-rdf-syntax-ns#"
   xmlns:cc="http://creativecommons.org/ns#"
   xmlns:dc="http://purl.org/dc/elements/1.1/">
  <title
     id="title4756">Sikorsky S61 Sea King</title>
  <defs
     id="defs1536" />
  <sodipodi:namedview
     id="base"
     pagecolor="#ffffff"
     bordercolor="#666666"
     borderopacity="1.0"
     inkscape:pageopacity="0.0"
     inkscape:pageshadow="2"
     inkscape:zoom="11.2"
     inkscape:cx="158.88393"
     inkscape:cy="159.15179"
     inkscape:document-units="mm"
     inkscape:current-layer="layer10"
     inkscape:document-rotation="0"
     showgrid="false"
     inkscape:window-width="1920"
     inkscape:window-height="1121"
     inkscape:window-x="2391"
     inkscape:window-y="140"
     inkscape:window-maximized="1"
     inkscape:snap-global="false"
     inkscape:showpageshadow="2"
     inkscape:pagecheckerboard="0"
     inkscape:deskcolor="#d1d1d1" />
  <metadata
     id="metadata1539">
    <rdf:RDF>
      <cc:Work
         rdf:about="">
        <dc:format>image/svg+xml</dc:format>
        <dc:type
           rdf:resource="http://purl.org/dc/dcmitype/StillImage" />
        <dc:creator>
          <cc:Agent>
            <dc:title>RexKramer1</dc:title>
          </cc:Agent>
        </dc:creator>
        <dc:rights>
          <cc:Agent>
            <dc:title>GNU General Public License v3.0</dc:title>
          </cc:Agent>
        </dc:rights>
        <dc:title>Sikorsky S61 Sea King</dc:title>
      </cc:Work>
    </rdf:RDF>
  </metadata>
  <g
     inkscape:groupmode="layer"
     id="layer10"
     inkscape:label="Pfade"
     style="display:inline">
    <path
       style="fill:#000000;
       d="M 9.7720421,3.1237126 8.9034161,3.2740518 8.6528509,3.6415472 8.5860336,3.9422255 8.6361465,5.0614167 8.519216,5.4957297 3.9589299,0.01670434 3.5747298,0.35079125 8.4356944,6.2474252 7.8343381,6.2975381 7.6338858,6.0302687 H 7.4334337 L 7.1160512,6.3476512 V 6.5815119 L 6.8988947,7.0659381 7.0492336,8.0347901 0.03340869,10.323285 v 0.116931 L 0.26726951,10.791007 7.1327554,8.5359205 7.3165032,9.2040942 7.5336597,9.287616 7.7675205,9.1372768 7.9011554,8.2853553 8.4691031,8.1350161 8.4524,10.891233 l 0.2505651,1.436574 0.4844262,1.035669 0.083521,1.720548 0.050113,1.252826 -0.066817,0.05011 0.050113,0.350791 0.1169302,0.451017 0.050113,1.219418 -0.4009043,0.100226 -0.016703,-1.436574 H 8.9034185 l -0.050113,1.202713 -0.1336347,0.01671 0.016703,0.584653 h 0.133635 l -0.016706,1.219417 h 0.1336347 l 0.033409,-1.186009 0.3842002,0.150339 0.100226,0.434313 2.9900773,-0.300678 0.05011,-0.584652 -2.7729207,-0.400904 0.3006777,-4.877669 0.618061,-1.1526 0.200452,-1.336347 0.08352,-1.0022612 0.150339,0.3006782 h 0.08352 l 0.16705,-0.3340889 V 9.3043218 L 11.22532,9.2208 10.95805,9.3377304 10.907938,9.2375042 V 8.1350174 l 0.50113,0.1336347 -0.100226,0.2505652 0.300678,0.1670436 0.05011,0.4176086 0.133635,0.1336347 -0.183748,0.334087 0.551243,-0.016703 -0.217156,-0.3006783 0.200452,-0.1336347 0.01671,-0.233861 7.232981,2.3219038 0.150339,-0.217156 -0.05011,-0.250565 -7.249685,-2.3887218 0.23386,-1.0189649 -0.03341,-0.6848782 -0.133635,-0.233861 0.05011,-0.016703 -0.06682,-0.1670436 -0.167043,-0.033409 -0.03341,-0.033409 L 11.876791,6.0469763 11.626226,6.314246 11.342251,6.2808339 16.203215,0.46772168 15.935946,0.31738257 H 15.735493 L 10.941346,6.1304947 10.95805,4.2261993 10.857824,3.5079125 10.573851,3.2239386 Z"
       id="path4396" />
  </g>
  <g
     inkscape:groupmode="layer"
     id="layer11"
</svg>
